<mxfile host="Electron" modified="2023-10-05T20:29:18.897Z" agent="Mozilla/5.0 (Windows NT 10.0; Win64; x64) AppleWebKit/537.36 (KHTML, like Gecko) draw.io/21.7.5 Chrome/114.0.5735.289 Electron/25.8.1 Safari/537.36" etag="BWl3P2DEK3OmQ98-6DO1" version="21.7.5" type="device">
  <diagram name="PÃ¡gina-1" id="Odhd4yQH7paIj2KKP6uk">
    <mxGraphModel dx="-1692" dy="2411" grid="1" gridSize="10" guides="1" tooltips="1" connect="1" arrows="1" fold="1" page="1" pageScale="1" pageWidth="827" pageHeight="1169" math="0" shadow="0">
      <root>
        <mxCell id="0" />
        <mxCell id="1" parent="0" />
        <mxCell id="Xkt2diSLOmGjNvRfCFZp-1" value="" style="group" parent="1" vertex="1" connectable="0">
          <mxGeometry x="6450" y="1640" width="1640" height="455" as="geometry" />
        </mxCell>
        <mxCell id="Xkt2diSLOmGjNvRfCFZp-2" value="&lt;font style=&quot;font-size: 20px;&quot;&gt;API o Middleware de autenticacion&amp;nbsp; (Login)&lt;br&gt;&lt;br&gt;Username&lt;br&gt;Password&lt;br&gt;Tipo de usuario&lt;/font&gt;" style="shape=folder;fontStyle=1;spacingTop=10;tabWidth=50;tabHeight=17;tabPosition=left;html=1;rounded=0;shadow=0;comic=0;labelBackgroundColor=none;strokeWidth=1;fontFamily=Verdana;fontSize=10;align=center;" parent="Xkt2diSLOmGjNvRfCFZp-1" vertex="1">
          <mxGeometry y="-160" width="1240" height="320" as="geometry" />
        </mxCell>
        <mxCell id="Xkt2diSLOmGjNvRfCFZp-3" value="&lt;font style=&quot;font-size: 21px;&quot;&gt;Acceso al sistema&lt;/font&gt;" style="text;html=1;strokeColor=none;fillColor=none;align=center;verticalAlign=middle;whiteSpace=wrap;rounded=0;" parent="Xkt2diSLOmGjNvRfCFZp-1" vertex="1">
          <mxGeometry x="477.5" y="120" width="194" height="40" as="geometry" />
        </mxCell>
        <mxCell id="Xkt2diSLOmGjNvRfCFZp-4" value="&lt;font style=&quot;font-size: 21px;&quot;&gt;Loop hacia login&lt;/font&gt;" style="text;html=1;strokeColor=none;fillColor=none;align=center;verticalAlign=middle;whiteSpace=wrap;rounded=0;" parent="Xkt2diSLOmGjNvRfCFZp-1" vertex="1">
          <mxGeometry x="717.5" y="120" width="194" height="40" as="geometry" />
        </mxCell>
        <mxCell id="Xkt2diSLOmGjNvRfCFZp-8" value="" style="shape=folder;fontStyle=1;spacingTop=10;tabWidth=50;tabHeight=17;tabPosition=left;html=1;rounded=0;shadow=0;comic=0;labelBackgroundColor=none;strokeWidth=1;fontFamily=Verdana;fontSize=10;align=center;" parent="1" vertex="1">
          <mxGeometry x="6470" y="1990" width="1150" height="330" as="geometry" />
        </mxCell>
        <mxCell id="Xkt2diSLOmGjNvRfCFZp-9" value="&lt;font style=&quot;font-size: 9px;&quot;&gt;Login visual&lt;/font&gt;" style="text;html=1;strokeColor=none;fillColor=none;align=center;verticalAlign=middle;whiteSpace=wrap;rounded=0;" parent="1" vertex="1">
          <mxGeometry x="6460" y="1980" width="72" height="40" as="geometry" />
        </mxCell>
        <mxCell id="Xkt2diSLOmGjNvRfCFZp-10" value="&lt;h1 style=&quot;font-size: 43px;&quot;&gt;&lt;span style=&quot;background-color: initial;&quot;&gt;&lt;font style=&quot;font-size: 43px;&quot;&gt;Ventana Login:&lt;/font&gt;&lt;/span&gt;&lt;/h1&gt;&lt;div style=&quot;font-size: 43px;&quot;&gt;&lt;span style=&quot;background-color: initial;&quot;&gt;&lt;font style=&quot;font-size: 43px;&quot;&gt;Input de usuario.&lt;/font&gt;&lt;/span&gt;&lt;/div&gt;&lt;div style=&quot;font-size: 43px;&quot;&gt;&lt;span style=&quot;background-color: initial;&quot;&gt;&lt;font style=&quot;font-size: 43px;&quot;&gt;Input de password.&lt;/font&gt;&lt;/span&gt;&lt;/div&gt;&lt;div style=&quot;font-size: 43px;&quot;&gt;&lt;font style=&quot;font-size: 43px;&quot;&gt;Boton de login.&lt;/font&gt;&lt;/div&gt;" style="text;html=1;strokeColor=none;fillColor=none;spacing=5;spacingTop=-20;whiteSpace=wrap;overflow=hidden;rounded=0;" parent="1" vertex="1">
          <mxGeometry x="6850" y="2040" width="550" height="270" as="geometry" />
        </mxCell>
        <mxCell id="Xkt2diSLOmGjNvRfCFZp-11" value="&lt;font style=&quot;font-size: 25px;&quot;&gt;Usuario valido&lt;/font&gt;" style="text;html=1;strokeColor=none;fillColor=none;align=center;verticalAlign=middle;whiteSpace=wrap;rounded=0;" parent="1" vertex="1">
          <mxGeometry x="6947.5" y="1860" width="160" height="40" as="geometry" />
        </mxCell>
        <mxCell id="Xkt2diSLOmGjNvRfCFZp-12" value="&lt;font style=&quot;font-size: 24px;&quot;&gt;Usuario no valido&lt;/font&gt;" style="text;html=1;strokeColor=none;fillColor=none;align=center;verticalAlign=middle;whiteSpace=wrap;rounded=0;" parent="1" vertex="1">
          <mxGeometry x="7177.5" y="1850" width="190" height="40" as="geometry" />
        </mxCell>
        <mxCell id="Xkt2diSLOmGjNvRfCFZp-13" value="" style="endArrow=classic;startArrow=classic;html=1;rounded=0;exitX=0.5;exitY=0;exitDx=0;exitDy=0;entryX=0.5;entryY=1;entryDx=0;entryDy=0;" parent="1" source="Xkt2diSLOmGjNvRfCFZp-11" target="Xkt2diSLOmGjNvRfCFZp-3" edge="1">
          <mxGeometry width="50" height="50" relative="1" as="geometry">
            <mxPoint x="6987.5" y="1850" as="sourcePoint" />
            <mxPoint x="7037.5" y="1800" as="targetPoint" />
          </mxGeometry>
        </mxCell>
        <mxCell id="Xkt2diSLOmGjNvRfCFZp-14" value="" style="endArrow=classic;startArrow=classic;html=1;rounded=0;entryX=0.5;entryY=1;entryDx=0;entryDy=0;exitX=0.407;exitY=0.085;exitDx=0;exitDy=0;exitPerimeter=0;" parent="1" source="Xkt2diSLOmGjNvRfCFZp-8" target="Xkt2diSLOmGjNvRfCFZp-11" edge="1">
          <mxGeometry width="50" height="50" relative="1" as="geometry">
            <mxPoint x="7007.5" y="1960" as="sourcePoint" />
            <mxPoint x="7057.5" y="1910" as="targetPoint" />
          </mxGeometry>
        </mxCell>
        <mxCell id="Xkt2diSLOmGjNvRfCFZp-15" value="" style="endArrow=classic;startArrow=classic;html=1;rounded=0;exitX=0.5;exitY=0;exitDx=0;exitDy=0;entryX=0.665;entryY=0.998;entryDx=0;entryDy=0;entryPerimeter=0;" parent="1" source="Xkt2diSLOmGjNvRfCFZp-12" target="Xkt2diSLOmGjNvRfCFZp-2" edge="1">
          <mxGeometry width="50" height="50" relative="1" as="geometry">
            <mxPoint x="7264" y="1860" as="sourcePoint" />
            <mxPoint x="7261" y="1800" as="targetPoint" />
          </mxGeometry>
        </mxCell>
        <mxCell id="Xkt2diSLOmGjNvRfCFZp-16" value="" style="endArrow=classic;startArrow=classic;html=1;rounded=0;exitX=0.5;exitY=1;exitDx=0;exitDy=0;entryX=0.76;entryY=0.101;entryDx=0;entryDy=0;entryPerimeter=0;" parent="1" source="Xkt2diSLOmGjNvRfCFZp-12" target="Xkt2diSLOmGjNvRfCFZp-8" edge="1">
          <mxGeometry width="50" height="50" relative="1" as="geometry">
            <mxPoint x="7272.5" y="1870" as="sourcePoint" />
            <mxPoint x="7275.5" y="1813" as="targetPoint" />
          </mxGeometry>
        </mxCell>
        <mxCell id="Xkt2diSLOmGjNvRfCFZp-47" value="" style="group" parent="1" vertex="1" connectable="0">
          <mxGeometry x="6410" y="1090" width="1350" height="250" as="geometry" />
        </mxCell>
        <mxCell id="Xkt2diSLOmGjNvRfCFZp-48" value="" style="shape=folder;fontStyle=1;spacingTop=10;tabWidth=123;tabHeight=24;tabPosition=left;html=1;rounded=0;shadow=0;comic=0;labelBackgroundColor=none;strokeWidth=1;fontFamily=Verdana;fontSize=10;align=center;" parent="Xkt2diSLOmGjNvRfCFZp-47" vertex="1">
          <mxGeometry width="1260" height="210" as="geometry" />
        </mxCell>
        <mxCell id="Xkt2diSLOmGjNvRfCFZp-49" value="" style="shape=folder;fontStyle=1;spacingTop=10;tabWidth=50;tabHeight=17;tabPosition=left;html=1;rounded=0;shadow=0;comic=0;labelBackgroundColor=none;strokeWidth=1;fontFamily=Verdana;fontSize=10;align=center;" parent="Xkt2diSLOmGjNvRfCFZp-47" vertex="1">
          <mxGeometry x="378" y="46.15" width="612" height="133.85" as="geometry" />
        </mxCell>
        <mxCell id="Xkt2diSLOmGjNvRfCFZp-50" value="Interfaz camionero" style="text;html=1;strokeColor=none;fillColor=none;align=center;verticalAlign=middle;whiteSpace=wrap;rounded=0;" parent="Xkt2diSLOmGjNvRfCFZp-47" vertex="1">
          <mxGeometry x="-30" y="-7.5" width="180" height="42.69" as="geometry" />
        </mxCell>
        <mxCell id="Xkt2diSLOmGjNvRfCFZp-51" value="&lt;div style=&quot;font-size: 15px;&quot;&gt;&lt;font color=&quot;#ffffff&quot; face=&quot;Verdana&quot;&gt;&lt;span style=&quot;background-color: rgb(42, 37, 47);&quot;&gt;&lt;b&gt;Ventana:&lt;br&gt;Visualizar lotes en transito, su destino, tipo de&lt;br&gt;trayecto y que camion transporta cada lote&lt;/b&gt;&lt;/span&gt;&lt;/font&gt;&lt;/div&gt;" style="text;whiteSpace=wrap;html=1;align=left;" parent="Xkt2diSLOmGjNvRfCFZp-47" vertex="1">
          <mxGeometry x="405" y="75" width="415" height="95" as="geometry" />
        </mxCell>
        <mxCell id="Xkt2diSLOmGjNvRfCFZp-52" value="&lt;font style=&quot;font-size: 7px;&quot;&gt;Ventanas-Gui&lt;/font&gt;" style="text;html=1;strokeColor=none;fillColor=none;align=center;verticalAlign=middle;whiteSpace=wrap;rounded=0;" parent="Xkt2diSLOmGjNvRfCFZp-47" vertex="1">
          <mxGeometry x="350" y="46.15" width="100" height="20" as="geometry" />
        </mxCell>
        <mxCell id="Xkt2diSLOmGjNvRfCFZp-60" value="&lt;font style=&quot;font-size: 12px;&quot;&gt;Capa visual&lt;/font&gt;" style="text;html=1;strokeColor=none;fillColor=none;align=center;verticalAlign=middle;whiteSpace=wrap;rounded=0;" parent="Xkt2diSLOmGjNvRfCFZp-47" vertex="1">
          <mxGeometry x="-240" y="-107.5" width="480" height="140" as="geometry" />
        </mxCell>
        <mxCell id="Jwe1vgdzM0iU7PsMpSPw-28" value="" style="shape=folder;fontStyle=1;spacingTop=10;tabWidth=123;tabHeight=24;tabPosition=left;html=1;rounded=0;shadow=0;comic=0;labelBackgroundColor=none;strokeWidth=1;fontFamily=Verdana;fontSize=10;align=center;fillColor=none;" vertex="1" parent="Xkt2diSLOmGjNvRfCFZp-47">
          <mxGeometry x="-60" y="-55" width="1410" height="305" as="geometry" />
        </mxCell>
        <mxCell id="Jwe1vgdzM0iU7PsMpSPw-1" value="" style="group" vertex="1" connectable="0" parent="1">
          <mxGeometry x="6862" width="356" height="160" as="geometry" />
        </mxCell>
        <mxCell id="Jwe1vgdzM0iU7PsMpSPw-2" value="API Seguimiento" style="shape=folder;fontStyle=1;spacingTop=10;tabWidth=50;tabHeight=17;tabPosition=left;html=1;rounded=0;shadow=0;comic=0;labelBackgroundColor=none;strokeWidth=1;fontFamily=Verdana;fontSize=10;align=center;" vertex="1" parent="Jwe1vgdzM0iU7PsMpSPw-1">
          <mxGeometry width="356" height="160" as="geometry" />
        </mxCell>
        <mxCell id="Jwe1vgdzM0iU7PsMpSPw-3" value="" style="group" vertex="1" connectable="0" parent="1">
          <mxGeometry x="6690" y="318" width="280" height="130" as="geometry" />
        </mxCell>
        <mxCell id="Jwe1vgdzM0iU7PsMpSPw-4" value="" style="shape=folder;fontStyle=1;spacingTop=10;tabWidth=123;tabHeight=24;tabPosition=left;html=1;rounded=0;shadow=0;comic=0;labelBackgroundColor=none;strokeWidth=1;fontFamily=Verdana;fontSize=10;align=center;" vertex="1" parent="Jwe1vgdzM0iU7PsMpSPw-3">
          <mxGeometry width="280" height="130" as="geometry" />
        </mxCell>
        <mxCell id="Jwe1vgdzM0iU7PsMpSPw-5" value="ID Camion&lt;br&gt;ID Lote&lt;br&gt;ID Destino&lt;br&gt;Estado" style="shape=folder;fontStyle=1;spacingTop=10;tabWidth=50;tabHeight=17;tabPosition=left;html=1;rounded=0;shadow=0;comic=0;labelBackgroundColor=none;strokeWidth=1;fontFamily=Verdana;fontSize=10;align=center;" vertex="1" parent="Jwe1vgdzM0iU7PsMpSPw-3">
          <mxGeometry x="68.5" y="30" width="122" height="90" as="geometry" />
        </mxCell>
        <mxCell id="Jwe1vgdzM0iU7PsMpSPw-6" value="Modelo de Transporta" style="text;html=1;strokeColor=none;fillColor=none;align=center;verticalAlign=middle;whiteSpace=wrap;rounded=0;" vertex="1" parent="Jwe1vgdzM0iU7PsMpSPw-3">
          <mxGeometry y="-10" width="120" height="40" as="geometry" />
        </mxCell>
        <mxCell id="Jwe1vgdzM0iU7PsMpSPw-7" value="" style="group" vertex="1" connectable="0" parent="1">
          <mxGeometry x="6681" y="738" width="280" height="130" as="geometry" />
        </mxCell>
        <mxCell id="Jwe1vgdzM0iU7PsMpSPw-8" value="" style="shape=folder;fontStyle=1;spacingTop=10;tabWidth=123;tabHeight=24;tabPosition=left;html=1;rounded=0;shadow=0;comic=0;labelBackgroundColor=none;strokeWidth=1;fontFamily=Verdana;fontSize=10;align=center;" vertex="1" parent="Jwe1vgdzM0iU7PsMpSPw-7">
          <mxGeometry width="280" height="130" as="geometry" />
        </mxCell>
        <mxCell id="Jwe1vgdzM0iU7PsMpSPw-9" value="" style="shape=folder;fontStyle=1;spacingTop=10;tabWidth=50;tabHeight=17;tabPosition=left;html=1;rounded=0;shadow=0;comic=0;labelBackgroundColor=none;strokeWidth=1;fontFamily=Verdana;fontSize=10;align=center;" vertex="1" parent="Jwe1vgdzM0iU7PsMpSPw-7">
          <mxGeometry x="84" y="40" width="136" height="80" as="geometry" />
        </mxCell>
        <mxCell id="Jwe1vgdzM0iU7PsMpSPw-10" value="Controlador de Transporta" style="text;html=1;strokeColor=none;fillColor=none;align=center;verticalAlign=middle;whiteSpace=wrap;rounded=0;" vertex="1" parent="Jwe1vgdzM0iU7PsMpSPw-7">
          <mxGeometry x="-4" y="-6.5" width="100" height="37" as="geometry" />
        </mxCell>
        <mxCell id="Jwe1vgdzM0iU7PsMpSPw-11" value="&lt;span style=&quot;color: rgb(240, 240, 240); font-family: Verdana; font-size: 10px; font-style: normal; font-variant-ligatures: normal; font-variant-caps: normal; font-weight: 700; letter-spacing: normal; orphans: 2; text-align: center; text-indent: 0px; text-transform: none; widows: 2; word-spacing: 0px; -webkit-text-stroke-width: 0px; background-color: rgb(42, 37, 47); text-decoration-thickness: initial; text-decoration-style: initial; text-decoration-color: initial; float: none; display: inline !important;&quot;&gt;Validacion de datos y &lt;br&gt;establecimientos de rutas o urls&lt;/span&gt;" style="text;whiteSpace=wrap;html=1;" vertex="1" parent="Jwe1vgdzM0iU7PsMpSPw-7">
          <mxGeometry x="90" y="65" width="124" height="52.5" as="geometry" />
        </mxCell>
        <mxCell id="Jwe1vgdzM0iU7PsMpSPw-12" style="rounded=0;html=1;dashed=1;labelBackgroundColor=none;startFill=0;endArrow=open;endFill=0;endSize=10;fontFamily=Verdana;fontSize=10;edgeStyle=elbowEdgeStyle;exitX=0.5;exitY=1;exitDx=0;exitDy=0;exitPerimeter=0;" edge="1" parent="1" source="Jwe1vgdzM0iU7PsMpSPw-2" target="Jwe1vgdzM0iU7PsMpSPw-26">
          <mxGeometry relative="1" as="geometry">
            <mxPoint x="6746" y="210" as="sourcePoint" />
            <mxPoint x="6812" y="160" as="targetPoint" />
          </mxGeometry>
        </mxCell>
        <mxCell id="Jwe1vgdzM0iU7PsMpSPw-13" value="" style="group" vertex="1" connectable="0" parent="1">
          <mxGeometry x="7090" y="318" width="280" height="130" as="geometry" />
        </mxCell>
        <mxCell id="Jwe1vgdzM0iU7PsMpSPw-14" value="" style="shape=folder;fontStyle=1;spacingTop=10;tabWidth=123;tabHeight=24;tabPosition=left;html=1;rounded=0;shadow=0;comic=0;labelBackgroundColor=none;strokeWidth=1;fontFamily=Verdana;fontSize=10;align=center;" vertex="1" parent="Jwe1vgdzM0iU7PsMpSPw-13">
          <mxGeometry width="280" height="130" as="geometry" />
        </mxCell>
        <mxCell id="Jwe1vgdzM0iU7PsMpSPw-15" value="ID Destino&lt;br&gt;Calle&lt;br&gt;Num&lt;br&gt;Esq&lt;br&gt;Bajalogica" style="shape=folder;fontStyle=1;spacingTop=10;tabWidth=50;tabHeight=17;tabPosition=left;html=1;rounded=0;shadow=0;comic=0;labelBackgroundColor=none;strokeWidth=1;fontFamily=Verdana;fontSize=10;align=center;" vertex="1" parent="Jwe1vgdzM0iU7PsMpSPw-13">
          <mxGeometry x="68.5" y="30" width="122" height="90" as="geometry" />
        </mxCell>
        <mxCell id="Jwe1vgdzM0iU7PsMpSPw-16" value="Modelo de Destino" style="text;html=1;strokeColor=none;fillColor=none;align=center;verticalAlign=middle;whiteSpace=wrap;rounded=0;" vertex="1" parent="Jwe1vgdzM0iU7PsMpSPw-13">
          <mxGeometry y="-8" width="109" height="40" as="geometry" />
        </mxCell>
        <mxCell id="Jwe1vgdzM0iU7PsMpSPw-17" value="" style="group" vertex="1" connectable="0" parent="1">
          <mxGeometry x="7081" y="738" width="280" height="130" as="geometry" />
        </mxCell>
        <mxCell id="Jwe1vgdzM0iU7PsMpSPw-18" value="" style="shape=folder;fontStyle=1;spacingTop=10;tabWidth=123;tabHeight=24;tabPosition=left;html=1;rounded=0;shadow=0;comic=0;labelBackgroundColor=none;strokeWidth=1;fontFamily=Verdana;fontSize=10;align=center;" vertex="1" parent="Jwe1vgdzM0iU7PsMpSPw-17">
          <mxGeometry width="280" height="130" as="geometry" />
        </mxCell>
        <mxCell id="Jwe1vgdzM0iU7PsMpSPw-19" value="" style="shape=folder;fontStyle=1;spacingTop=10;tabWidth=50;tabHeight=17;tabPosition=left;html=1;rounded=0;shadow=0;comic=0;labelBackgroundColor=none;strokeWidth=1;fontFamily=Verdana;fontSize=10;align=center;" vertex="1" parent="Jwe1vgdzM0iU7PsMpSPw-17">
          <mxGeometry x="84" y="40" width="136" height="80" as="geometry" />
        </mxCell>
        <mxCell id="Jwe1vgdzM0iU7PsMpSPw-20" value="Controlador de Destino" style="text;html=1;strokeColor=none;fillColor=none;align=center;verticalAlign=middle;whiteSpace=wrap;rounded=0;" vertex="1" parent="Jwe1vgdzM0iU7PsMpSPw-17">
          <mxGeometry x="-4" y="-6.5" width="100" height="37" as="geometry" />
        </mxCell>
        <mxCell id="Jwe1vgdzM0iU7PsMpSPw-21" value="&lt;span style=&quot;color: rgb(240, 240, 240); font-family: Verdana; font-size: 10px; font-style: normal; font-variant-ligatures: normal; font-variant-caps: normal; font-weight: 700; letter-spacing: normal; orphans: 2; text-align: center; text-indent: 0px; text-transform: none; widows: 2; word-spacing: 0px; -webkit-text-stroke-width: 0px; background-color: rgb(42, 37, 47); text-decoration-thickness: initial; text-decoration-style: initial; text-decoration-color: initial; float: none; display: inline !important;&quot;&gt;Validacion de datos y &lt;br&gt;establecimientos de rutas o urls&lt;/span&gt;" style="text;whiteSpace=wrap;html=1;" vertex="1" parent="Jwe1vgdzM0iU7PsMpSPw-17">
          <mxGeometry x="90" y="65" width="124" height="52.5" as="geometry" />
        </mxCell>
        <mxCell id="Jwe1vgdzM0iU7PsMpSPw-22" style="rounded=0;html=1;dashed=1;labelBackgroundColor=none;startFill=0;endArrow=open;endFill=0;endSize=10;fontFamily=Verdana;fontSize=10;entryX=0.375;entryY=-0.023;edgeStyle=elbowEdgeStyle;entryDx=0;entryDy=0;exitX=0.5;exitY=1;exitDx=0;exitDy=0;exitPerimeter=0;entryPerimeter=0;" edge="1" parent="1" source="Jwe1vgdzM0iU7PsMpSPw-4" target="Jwe1vgdzM0iU7PsMpSPw-8">
          <mxGeometry relative="1" as="geometry">
            <mxPoint x="6976" y="87" as="sourcePoint" />
            <mxPoint x="7155" y="320" as="targetPoint" />
            <Array as="points">
              <mxPoint x="6830" y="570" />
            </Array>
          </mxGeometry>
        </mxCell>
        <mxCell id="Jwe1vgdzM0iU7PsMpSPw-23" style="rounded=0;html=1;dashed=1;labelBackgroundColor=none;startFill=0;endArrow=open;endFill=0;endSize=10;fontFamily=Verdana;fontSize=10;edgeStyle=elbowEdgeStyle;exitX=0.5;exitY=1;exitDx=0;exitDy=0;exitPerimeter=0;" edge="1" parent="1" source="Jwe1vgdzM0iU7PsMpSPw-14">
          <mxGeometry relative="1" as="geometry">
            <mxPoint x="7256" y="530.5" as="sourcePoint" />
            <mxPoint x="7172" y="740" as="targetPoint" />
            <Array as="points">
              <mxPoint x="7162" y="600" />
            </Array>
          </mxGeometry>
        </mxCell>
        <mxCell id="Jwe1vgdzM0iU7PsMpSPw-24" value="&lt;font style=&quot;font-size: 12px;&quot;&gt;Logica del negocio&lt;/font&gt;" style="text;html=1;strokeColor=none;fillColor=none;align=center;verticalAlign=middle;whiteSpace=wrap;rounded=0;" vertex="1" parent="1">
          <mxGeometry x="6490" y="258" width="480" height="30" as="geometry" />
        </mxCell>
        <mxCell id="Jwe1vgdzM0iU7PsMpSPw-25" value="&lt;font style=&quot;font-size: 10px;&quot;&gt;Interprete de datos recibidos&lt;/font&gt;" style="text;html=1;strokeColor=none;fillColor=none;align=center;verticalAlign=middle;whiteSpace=wrap;rounded=0;" vertex="1" parent="1">
          <mxGeometry x="6650" y="676" width="160" height="42" as="geometry" />
        </mxCell>
        <mxCell id="Jwe1vgdzM0iU7PsMpSPw-26" value="" style="shape=folder;fontStyle=1;spacingTop=10;tabWidth=123;tabHeight=24;tabPosition=left;html=1;rounded=0;shadow=0;comic=0;labelBackgroundColor=none;strokeWidth=1;fontFamily=Verdana;fontSize=10;align=center;fillColor=none;" vertex="1" parent="1">
          <mxGeometry x="6672" y="260" width="740" height="225" as="geometry" />
        </mxCell>
        <mxCell id="Jwe1vgdzM0iU7PsMpSPw-27" value="" style="shape=folder;fontStyle=1;spacingTop=10;tabWidth=123;tabHeight=24;tabPosition=left;html=1;rounded=0;shadow=0;comic=0;labelBackgroundColor=none;strokeWidth=1;fontFamily=Verdana;fontSize=10;align=center;fillColor=none;" vertex="1" parent="1">
          <mxGeometry x="6670" y="685.5" width="740" height="225" as="geometry" />
        </mxCell>
        <mxCell id="Jwe1vgdzM0iU7PsMpSPw-30" style="rounded=0;html=1;dashed=1;labelBackgroundColor=none;startFill=0;endArrow=open;endFill=0;endSize=10;fontFamily=Verdana;fontSize=10;edgeStyle=elbowEdgeStyle;entryX=0.496;entryY=0.066;entryDx=0;entryDy=0;entryPerimeter=0;" edge="1" parent="1" source="Jwe1vgdzM0iU7PsMpSPw-27" target="Jwe1vgdzM0iU7PsMpSPw-28">
          <mxGeometry relative="1" as="geometry">
            <mxPoint x="7050" y="170" as="sourcePoint" />
            <mxPoint x="7049" y="270" as="targetPoint" />
          </mxGeometry>
        </mxCell>
        <mxCell id="Jwe1vgdzM0iU7PsMpSPw-31" style="rounded=0;html=1;dashed=1;labelBackgroundColor=none;startFill=0;endArrow=open;endFill=0;endSize=10;fontFamily=Verdana;fontSize=10;edgeStyle=elbowEdgeStyle;" edge="1" parent="1" source="Jwe1vgdzM0iU7PsMpSPw-28" target="Jwe1vgdzM0iU7PsMpSPw-29">
          <mxGeometry relative="1" as="geometry">
            <mxPoint x="7059" y="921" as="sourcePoint" />
            <mxPoint x="7059" y="1213" as="targetPoint" />
          </mxGeometry>
        </mxCell>
        <mxCell id="Jwe1vgdzM0iU7PsMpSPw-29" value="" style="shape=folder;fontStyle=1;spacingTop=10;tabWidth=123;tabHeight=24;tabPosition=left;html=1;rounded=0;shadow=0;comic=0;labelBackgroundColor=none;strokeWidth=1;fontFamily=Verdana;fontSize=10;align=center;fillColor=none;" vertex="1" parent="1">
          <mxGeometry x="6350" y="1450" width="1400" height="870" as="geometry" />
        </mxCell>
        <mxCell id="Jwe1vgdzM0iU7PsMpSPw-32" value="&lt;font style=&quot;font-size: 12px;&quot;&gt;login&lt;/font&gt;" style="text;html=1;strokeColor=none;fillColor=none;align=center;verticalAlign=middle;whiteSpace=wrap;rounded=0;" vertex="1" parent="1">
          <mxGeometry x="6160" y="1390" width="480" height="140" as="geometry" />
        </mxCell>
      </root>
    </mxGraphModel>
  </diagram>
</mxfile>
